<svg xmlns="http://www.w3.org/2000/svg" width="26.983" height="26.983" viewBox="0 0 26.983 26.983">
  <g id="Icon_ionic-md-list-box" data-name="Icon ionic-md-list-box" transform="translate(-3.5 -3.5)" fill="none" stroke-linecap="square" stroke-linejoin="round">
    <path d="M26.88,4.5H7.1A2.6,2.6,0,0,0,4.5,7.1V26.88a2.6,2.6,0,0,0,2.6,2.6H26.88a2.6,2.6,0,0,0,2.6-2.6V7.1A2.6,2.6,0,0,0,26.88,4.5ZM20.114,23.278H9.7V22.155H20.114Zm4.164-5.725H9.7V16.43H24.278Zm0-5.725H9.7V10.7H24.278Z" stroke="none"/>
    <path d="M 7.102363586425781 4.500003814697266 C 5.665142059326172 4.500003814697266 4.500003814697266 5.665073394775391 4.500003814697266 7.102363586425781 L 4.500003814697266 26.88030242919922 C 4.500003814697266 28.31759262084961 5.665142059326172 29.48266220092773 7.102363586425781 29.48266220092773 L 26.88030242919922 29.48266220092773 C 28.31759262084961 29.48266220092773 29.48266220092773 28.31759262084961 29.48266220092773 26.88030242919922 L 29.48266220092773 7.102363586425781 C 29.48266220092773 5.665073394775391 28.31759262084961 4.500003814697266 26.88030242919922 4.500003814697266 L 7.102363586425781 4.500003814697266 M 24.2779426574707 11.82755279541016 L 14.63991355895996 11.82755279541016 L 9.704723358154297 11.82755279541016 L 9.704723358154297 10.7047233581543 L 24.2779426574707 10.7047233581543 L 24.2779426574707 11.82755279541016 M 24.2779426574707 17.55275344848633 L 9.704723358154297 17.55275344848633 L 9.704723358154297 16.42991256713867 L 24.2779426574707 16.42991256713867 L 24.2779426574707 17.55275344848633 M 20.11417388916016 23.2779426574707 L 9.704723358154297 23.2779426574707 L 9.704723358154297 22.15511322021484 L 20.11417388916016 22.15511322021484 L 20.11417388916016 23.2779426574707 M 7.102363586425781 3.500003814697266 L 26.88030242919922 3.500003814697266 C 28.86665344238281 3.500003814697266 30.48266220092773 5.116012573242188 30.48266220092773 7.102363586425781 L 30.48266220092773 26.88030242919922 C 30.48266220092773 28.86665344238281 28.86665344238281 30.48266220092773 26.88030242919922 30.48266220092773 L 7.102363586425781 30.48266220092773 C 5.116012573242188 30.48266220092773 3.500003814697266 28.86665344238281 3.500003814697266 26.88030242919922 L 3.500003814697266 7.102363586425781 C 3.500003814697266 5.116012573242188 5.116012573242188 3.500003814697266 7.102363586425781 3.500003814697266 Z" stroke="none" fill="#fff"/>
  </g>
</svg>
