<svg xmlns="http://www.w3.org/2000/svg" width="34.8" height="24.66" viewBox="0 0 34.8 24.66">
  <path id="Icon_awesome-user-friends" data-name="Icon awesome-user-friends" d="M10.14,14.08A5.915,5.915,0,1,0,4.225,8.165,5.912,5.912,0,0,0,10.14,14.08ZM14.2,15.77h-.438a8.166,8.166,0,0,1-7.235,0H6.084A6.086,6.086,0,0,0,0,21.854v1.521A2.536,2.536,0,0,0,2.535,25.91h15.21a2.536,2.536,0,0,0,2.535-2.535V21.854A6.086,6.086,0,0,0,14.2,15.77ZM25.35,14.08a5.07,5.07,0,1,0-5.07-5.07A5.071,5.071,0,0,0,25.35,14.08Zm2.535,1.69h-.2a6.66,6.66,0,0,1-4.669,0h-.2a5.866,5.866,0,0,0-2.942.813,7.729,7.729,0,0,1,2.1,5.271v2.028c0,.116-.026.227-.032.338h9.327A2.536,2.536,0,0,0,33.8,21.685a5.912,5.912,0,0,0-5.915-5.915Z" transform="translate(0.5 -1.75)" fill="none" stroke="#fff" stroke-width="1"/>
</svg>
